<?xml version="1.0" encoding="utf-8"?>
<!-- Generator: Adobe Illustrator 18.1.1, SVG Export Plug-In . SVG Version: 6.00 Build 0)  -->
<!DOCTYPE svg PUBLIC "-//W3C//DTD SVG 1.1//EN" "http://www.w3.org/Graphics/SVG/1.1/DTD/svg11.dtd">
<svg version="1.1" id="Layer_1" xmlns:sketch="http://www.bohemiancoding.com/sketch/ns"
	 xmlns="http://www.w3.org/2000/svg" xmlns:xlink="http://www.w3.org/1999/xlink" x="0px" y="0px" viewBox="-291 293 16 15"
	 enable-background="new -291 293 16 15" xml:space="preserve">
<title>github-logo</title>
<desc>Created with Sketch.</desc>
<g id="Page-2-Copy-3" sketch:type="MSPage">
	<g id="editor---default" transform="translate(-817.000000, -18.000000)" sketch:type="MSArtboardGroup">
		
			<g id="Make-it-so-_xD83D__xDC4D__xD83C__xDFFC_-_x2B_-Rectangle-891" transform="translate(720.000000, 13.000000)" sketch:type="MSLayerGroup">
			<g enable-background="new    ">
				<path fill="#222222" d="M-186,298.7c2,0,3.6,0.7,5,2s2,3,2,5c0,1.6-0.5,2.9-1.4,4.1s-2,2-3.4,2.5c-0.2,0-0.3,0-0.4-0.1
					c-0.1-0.1-0.1-0.2-0.1-0.3l0-1.9c0-0.3,0-0.6-0.1-0.8s-0.2-0.4-0.3-0.5c0.8-0.1,1.5-0.3,2.2-0.8s1-1.4,1-2.7
					c0-0.4-0.1-0.7-0.2-1c-0.1-0.3-0.3-0.6-0.5-0.8c0.1-0.1,0.1-0.3,0.1-0.6c0-0.3,0-0.7-0.2-1.2c0,0-0.2,0-0.5,0
					c-0.3,0-0.8,0.3-1.5,0.7c-0.6-0.2-1.1-0.2-1.7-0.2c-0.6,0-1.2,0.1-1.8,0.2c-0.7-0.4-1.2-0.7-1.5-0.7c-0.3,0-0.5,0-0.5,0
					c-0.2,0.5-0.2,0.9-0.2,1.2c0,0.3,0.1,0.5,0.1,0.6c-0.2,0.2-0.4,0.5-0.5,0.8c-0.1,0.3-0.2,0.7-0.2,1c0,1.3,0.4,2.2,1,2.7
					c0.6,0.5,1.4,0.7,2.2,0.8c-0.1,0.1-0.2,0.2-0.3,0.4s-0.1,0.3-0.2,0.6c-0.2,0.1-0.5,0.2-0.9,0.2c-0.4,0-0.8-0.3-1.1-0.8
					c0,0-0.1-0.1-0.3-0.3c-0.2-0.2-0.4-0.3-0.8-0.4c0,0-0.1,0-0.3,0s-0.1,0.2,0.2,0.4c0,0,0.1,0.1,0.3,0.2c0.2,0.2,0.3,0.4,0.5,0.8
					c0,0.1,0.1,0.3,0.4,0.6c0.3,0.3,1,0.4,1.9,0.2l0,1.3c0,0.1,0,0.2-0.1,0.3c-0.1,0.1-0.2,0.1-0.4,0.1c-1.4-0.5-2.6-1.3-3.4-2.5
					s-1.3-2.6-1.4-4.1c0-2,0.7-3.6,2-5C-189.6,299.4-188,298.7-186,298.7L-186,298.7z"/>
			</g>
		</g>
	</g>
</g>
</svg>
