<svg xmlns="http://www.w3.org/2000/svg" viewBox="0 0 800 958" enable-background="new 0 0 800 958"><style type="text/css">.st0{fill:none;} .st1{fill:#E63F45;} .st2{fill:#222222;} .Graphic_x0020_Style{fill:none;stroke:#222222;stroke-width:3;stroke-linejoin:round;stroke-miterlimit:10;} .st3{fill:#F39B4D;stroke:#222222;stroke-width:3;stroke-linecap:round;stroke-linejoin:round;stroke-miterlimit:10;} .st4{fill:#FCF3B0;stroke:#222222;stroke-width:3;stroke-linecap:round;stroke-linejoin:round;stroke-miterlimit:10;} .st5{fill:#EF9955;stroke:#222222;stroke-width:3;stroke-linecap:round;stroke-linejoin:round;stroke-miterlimit:10;} .st6{fill:none;stroke:#222222;stroke-width:3;stroke-linecap:round;stroke-linejoin:round;stroke-miterlimit:10;} .st7{fill:#F5B9B9;stroke:#222222;stroke-miterlimit:10;} .st8{fill:#29B3BB;stroke:#222222;stroke-width:3;stroke-linejoin:round;stroke-miterlimit:10;} .st9{fill:#29B3BB;stroke:#222222;stroke-miterlimit:10;} .st10{stroke:#222222;stroke-miterlimit:10;} .st11{fill:#E96C64;stroke:#222222;stroke-width:3;stroke-miterlimit:10;} .st12{fill:#FFFFFF;stroke:#222222;stroke-width:3;stroke-miterlimit:10;} .st13{fill:#6498CF;stroke:#222222;stroke-width:3;stroke-miterlimit:10;} .st14{fill:#E93C45;} .st15{fill:#5F98CB;} .st16{fill:#FFFFFF;} .st17{fill:#F5B9B9;} .st18{fill:#E96E45;stroke:#222222;stroke-width:3;stroke-linejoin:round;stroke-miterlimit:10;} .st19{fill:#F39B4D;} .st20{fill:#E96E45;} .st21{fill:none;stroke:#222222;stroke-width:3;stroke-miterlimit:10;} .st22{fill:#F39B4D;stroke:#222222;stroke-width:3;stroke-linejoin:round;stroke-miterlimit:10;} .st23{fill:url(#New_Pattern_Swatch_2);} .st24{fill:#2AB3B9;stroke:#222222;stroke-width:3;stroke-linecap:round;stroke-linejoin:round;stroke-miterlimit:10;} .st25{fill:#FFFFFF;stroke:#222222;stroke-width:3;stroke-linecap:round;stroke-linejoin:round;stroke-miterlimit:10;} .st26{fill:#F3B9BA;stroke:#222222;stroke-width:3;stroke-linejoin:round;stroke-miterlimit:10;} .st27{fill:#FFFFFF;stroke:#222222;stroke-width:3;stroke-linejoin:round;stroke-miterlimit:10;} .st28{fill:none;stroke:#222222;stroke-width:3;stroke-linejoin:round;stroke-miterlimit:10;} .st29{fill:#FCF3B0;stroke:#222222;stroke-width:3;stroke-linejoin:round;stroke-miterlimit:10;} .st30{fill:#4D2021;} .st31{display:none;} .st32{display:inline;fill:none;stroke:#222222;stroke-width:3;stroke-linejoin:round;stroke-miterlimit:10;}</style><pattern x="-890.8" y="14.1" width="27.3" height="17" patternUnits="userSpaceOnUse" id="New_Pattern_Swatch_2" viewBox="0 -20.6 27.3 17" overflow="visible"><path class="st0" d="M0-3.6h27.3v-17h-27.3z"/><path class="st1" d="M27.3-3.6h-27.3v-17h27.3z"/><path class="st2" d="M20.2-5c0 .8.6 1.4 1.4 1.4.8 0 1.4-.6 1.4-1.4s-.6-1.4-1.4-1.4c-.7 0-1.4.6-1.4 1.4zM4.1-19.2c0 .8.6 1.4 1.4 1.4s1.4-.6 1.4-1.4-.6-1.4-1.4-1.4-1.4.6-1.4 1.4zM16.8-18.8c0 .8.6 1.4 1.4 1.4.8 0 1.4-.6 1.4-1.4s-.6-1.4-1.4-1.4c-.8 0-1.4.6-1.4 1.4zM23.8-12.6c0 .8.6 1.4 1.4 1.4.8 0 1.4-.6 1.4-1.4s-.6-1.4-1.4-1.4c-.7.1-1.4.7-1.4 1.4zM24.5-18.5c0 .8.6 1.4 1.4 1.4.8 0 1.4-.6 1.4-1.4s-.6-1.4-1.4-1.4c-.8 0-1.4.6-1.4 1.4zM19.7-10.6c0 .8.6 1.4 1.4 1.4.8 0 1.4-.6 1.4-1.4s-.7-1.4-1.4-1.4c-.8 0-1.4.6-1.4 1.4zM19.9-15.8c0 .8.6 1.4 1.4 1.4.8 0 1.4-.6 1.4-1.4s-.6-1.4-1.4-1.4c-.8 0-1.4.7-1.4 1.4zM9.1-13.6c0 .8.6 1.4 1.4 1.4s1.4-.6 1.4-1.4-.6-1.4-1.4-1.4-1.4.7-1.4 1.4zM1.5-14.7c0 .8.6 1.4 1.4 1.4s1.4-.6 1.4-1.4-.6-1.4-1.4-1.4-1.4.6-1.4 1.4zM1.4-5.3c0 .8.6 1.4 1.4 1.4s1.4-.6 1.4-1.4-.7-1.4-1.5-1.4-1.3.7-1.3 1.4zM14.4-14.9c0 .8.6 1.4 1.4 1.4.8 0 1.4-.6 1.4-1.4s-.6-1.4-1.4-1.4c-.8 0-1.4.6-1.4 1.4zM10.4-19.2c0 .8.6 1.4 1.4 1.4s1.4-.6 1.4-1.4-.6-1.4-1.4-1.4-1.4.6-1.4 1.4zM5.4-15.9c0 .8.6 1.4 1.4 1.4s1.4-.6 1.4-1.4-.6-1.4-1.4-1.4-1.4.6-1.4 1.4zM0-17.9c0 .8.6 1.4 1.4 1.4s1.4-.6 1.4-1.4-.6-1.4-1.4-1.4-1.4.7-1.4 1.4zM23.6-7.1c0 .8.6 1.4 1.4 1.4.8 0 1.4-.6 1.4-1.4s-.6-1.4-1.4-1.4c-.8 0-1.4.7-1.4 1.4zM11.8-5c0 .8.6 1.4 1.4 1.4s1.4-.6 1.4-1.4-.6-1.4-1.4-1.4-1.4.6-1.4 1.4zM10.4-9.3c0 .7.6 1.3 1.4 1.3s1.4-.6 1.4-1.4-.6-1.4-1.4-1.4-1.4.7-1.4 1.5zM14.8-10c0 .8.6 1.4 1.4 1.4.8 0 1.4-.6 1.4-1.4s-.6-1.4-1.4-1.4c-.8 0-1.4.6-1.4 1.4zM5.5-10.7c0 .8.6 1.4 1.4 1.4s1.4-.6 1.4-1.4-.6-1.4-1.4-1.4-1.4.6-1.4 1.4zM.5-9.5c0 .8.6 1.4 1.4 1.4s1.4-.6 1.4-1.4-.6-1.4-1.4-1.4-1.4.7-1.4 1.4zM16.8-6.4c0 .8.6 1.4 1.4 1.4.8 0 1.4-.6 1.4-1.4s-.6-1.4-1.4-1.4c-.8.1-1.4.7-1.4 1.4zM7-5.6c0 .8.6 1.4 1.4 1.4s1.4-.6 1.4-1.4-.6-1.4-1.4-1.4-1.4.7-1.4 1.4z"/></pattern><g id="Layer_2"><path class="st7" d="M166.2 213.5h213.1v206.3h-212.8l-.3-206.3"/><path class="st8" d="M778.9 933.1l-299.3-326h-458l224 326z"/><path class="st6" d="M50 467.3h38M80 467.3v10M50 477.9h63.4M57.4 467.3v10M99.9 477.9v9.9M91.5 487.8h20.7M87.2 260.8h20.7M98.2 260.8v12M87.2 272.8h20.7M544 346.9l14.9 14.9M552 354.9v14.5M545.1 363.1l14.8 14.8"/><path class="st6" d="M158.6 205.8h228.3v221.3h-228.3zM158.6 205.8l7.6 7.7h213.1v206.3h-212.7l-.4-206.3M386.9 205.8l-7.6 7.6M158.6 427.1l7.6-7.6M379.3 419.8l7.5 7.5M280.2 205.8s-1-10.4-11.2-10.4c-10.9 0-11.4 10.4-11.4 10.4"/><circle class="st10" cx="268.9" cy="195.4" r="3.8"/><path class="st11" d="M269.4 267.4h69.2v69.2h-69.2z"/><circle class="st12" cx="250.1" cy="318.8" r="56"/><path class="st13" d="M292.3 372.4c30.9 0 56-25.1 56-56h-112c0 31 25 56 56 56z"/><path class="st6" d="M726 693.9l12.7 12.7M732.8 700.7v12.4M726.9 707.8l12.7 12.7"/><path class="st1" d="M333.4 855.8c-.5 0-.9-.2-1.2-.6l-116.9-164.8c-.3-.5-.4-1.1-.1-1.6.3-.5.8-.8 1.3-.8h229.4c.4 0 .9.2 1.1.5l138.8 164.7c.4.4.5 1.1.2 1.6-.2.5-.8.9-1.4.9h-251.2z"/><path class="st2" d="M445.9 689.6l138.8 164.7h-251.3l-116.8-164.7h229.3m0-3h-229.3c-1.1 0-2.2.6-2.7 1.6s-.4 2.2.2 3.1l116.8 164.7c.6.8 1.5 1.3 2.4 1.3h251.3c1.2 0 2.2-.7 2.7-1.7.5-1.1.3-2.3-.4-3.2l-138.7-164.8c-.5-.6-1.4-1-2.3-1z"/><path class="st23" d="M337.8 845.3c-.5 0-.9-.2-1.2-.6l-104-146.7c-.3-.5-.4-1.1-.1-1.6.3-.5.8-.8 1.3-.8h204.2c.4 0 .9.2 1.1.5l123.6 146.6c.4.4.5 1.1.2 1.6s-.8.9-1.4.9h-223.7z"/><path class="st2" d="M438 697.1l123.6 146.6h-223.8l-104-146.6h204.2m0-3h-204.2c-1.1 0-2.2.6-2.7 1.6s-.4 2.2.2 3.1l104 146.6c.6.8 1.5 1.3 2.4 1.3h223.8c1.2 0 2.2-.7 2.7-1.7.5-1.1.3-2.3-.4-3.2l-123.5-146.6c-.6-.7-1.4-1.1-2.3-1.1z"/><path class="st1" d="M352.7 823.5c-.5 0-.9-.2-1.2-.6l-75.9-107c-.3-.5-.4-1.1-.1-1.6.3-.5.8-.8 1.3-.8h149c.4 0 .9.2 1.1.5l90.2 107c.4.4.5 1.1.2 1.6-.2.5-.8.9-1.4.9h-163.2z"/><path class="st2" d="M425.8 715l90.2 107h-163.3l-75.9-107h149m0-3h-149c-1.1 0-2.2.6-2.7 1.6s-.4 2.2.2 3.1l75.9 107c.6.8 1.5 1.3 2.4 1.3h163.3c1.2 0 2.2-.7 2.7-1.7.5-1.1.3-2.3-.4-3.2l-90.2-107c-.5-.7-1.4-1.1-2.2-1.1z"/><path class="st23" d="M358.3 813c-.5 0-.9-.2-1.2-.6l-62.5-88.1c-.3-.5-.4-1.1-.1-1.6.3-.5.8-.8 1.3-.8h125.6c.4 0 .9.2 1.1.5l74.2 88.1c.4.4.5 1.1.2 1.6-.2.5-.8.9-1.4.9h-137.2z"/><path class="st2" d="M421.5 723.4l74.2 88.1h-137.4l-62.5-88.1h125.7m0-3h-125.7c-1.1 0-2.2.6-2.7 1.6s-.4 2.2.2 3.1l62.5 88.1c.6.8 1.5 1.3 2.4 1.3h137.4c1.2 0 2.2-.7 2.7-1.7.5-1.1.3-2.3-.4-3.2l-74.2-88.1c-.5-.7-1.4-1.1-2.2-1.1z"/><path class="st1" d="M368.1 789.3c-.5 0-.9-.2-1.2-.6l-31.6-44c-.3-.5-.4-1.1-.1-1.6.3-.5.8-.8 1.3-.8h75.4c.4 0 .9.2 1.2.5l36.7 44c.4.4.5 1.1.2 1.6-.2.5-.8.9-1.4.9h-80.5z"/><path class="st2" d="M411.9 743.8l36.7 44h-80.5l-31.6-44h75.4m0-3h-75.4c-1.1 0-2.2.6-2.7 1.6s-.4 2.2.2 3.1l31.6 44c.6.8 1.5 1.3 2.4 1.3h80.5c1.2 0 2.2-.7 2.7-1.7.5-1.1.3-2.3-.4-3.2l-36.7-44c-.4-.8-1.3-1.1-2.2-1.1z"/><path class="st23" d="M372.3 780.4c-.5 0-1-.2-1.2-.7l-18.5-27.3c-.3-.5-.3-1.1-.1-1.5.3-.5.8-.8 1.3-.8h53.5c.5 0 .9.2 1.2.6l22.1 27.3c.4.4.4 1.1.2 1.6s-.8.9-1.4.9h-57.1z"/><path class="st2" d="M407.3 751.6l22.1 27.3h-57.1l-18.5-27.3h53.5m0-3h-53.5c-1.1 0-2.1.6-2.7 1.6-.5 1-.5 2.2.2 3.1l18.5 27.3c.6.8 1.5 1.3 2.5 1.3h57.1c1.2 0 2.2-.7 2.7-1.7s.4-2.3-.4-3.2l-22.1-27.3c-.5-.7-1.4-1.1-2.3-1.1z"/><path class="st3" d="M168 579.6h256.7l86 70.3h-259.3zM503.7 657.7v103.8s-2.6 4-6.2 0v-103.8h6.2zM266.3 657.7v103.8s-2.6 4-6.2 0v-103.8h6.2zM179.4 598.1v97.8s-2.6 4-6.2 0v-102.8l6.2 5zM426 658.1v40.8s-2.6 4-6.2 0v-40.8h6.2zM251.4 657.7v-7.8l-83.4-70.3v9.3l83.4 68.8v-7.8h259.3v7.8h-259.3"/><path class="st24" d="M192.3 592.8h48.9l-8.4-38.3v-30.4h-29.5v30.3zM232.8 524.1l-7.8-4h-26.2l4.5 4zM198.8 520.1l4.5 4v30.3l-4.5-2.5v-31.8M198.8 551.9l4.5 2.5-11 38.4-5.3-9 11.8-31.9"/><path class="st25" d="M208 528.8h20v19.7h-20z"/><path class="st6" d="M223.2 535.3l-4.7 3.8-5.9-5.7"/><circle class="st2" cx="218.5" cy="538.3" r="2.6"/><path class="st29" d="M449.4 596.3h-13.2v18.8c0 6.4 4.7 8.2 8.5 8.2h8.9c3.8 0 8.5-1.8 8.5-8.2v-18.8h-12.7z"/><path class="st30" d="M463.2 596.2s.3-3.3-13.9-3.3c-14.2 0-14.4 2.9-14.4 2.9s-.3 3.3 13.9 3.3c14.3 0 14.4-2.9 14.4-2.9z"/><path class="Graphic_x0020_Style" d="M436.2 601s3.7 1.8 12.7 1.8l13.2-1.8"/><path class="st29" d="M462.6 598.3s7 1.1 7.8 7.9l-7.8 10.1v-3.5s4.2-1.4 4.2-5.5-4.2-5.5-4.2-5.5v-3.5z"/><path class="st4" d="M296.8 603.4h76.8l32.4 26.5h-77.8zM311.8 607.6h56.8l21.4 16.5h-57.8zM296.8 556.3h77.9v47.1h-77.9z"/><path class="st27" d="M302.1 561.7h67.2v36.9h-67.2zM325.7 607.6l20.4 16.5M339.7 607.6l20.4 16.5M354.5 607.6l20.4 16.5M318.6 612.9h57.2M325.7 619h57.7"/><path class="st25" d="M307.2 567.5h5.6M307.2 573h13.1M307.2 578.8h30.6M335.7 573h13.3M353.7 573h7.5M324.8 573h6.3M317.7 567.5h2.6M324.4 567.5h13.4"/></g><g id="ceiling_lines" class="st31"><path class="st32" d="M21.6 17.8h456.6l300.7 293.3v622h-533.3l-224-326zM479.6 607.1v-589.3"/></g></svg>