<?xml version="1.0" encoding="UTF-8" standalone="no"?>
<svg width="15px" height="14px" viewBox="0 0 15 14" version="1.1" xmlns="http://www.w3.org/2000/svg" xmlns:xlink="http://www.w3.org/1999/xlink" xmlns:sketch="http://www.bohemiancoding.com/sketch/ns">
    <!-- Generator: Sketch 3.3.2 (12043) - http://www.bohemiancoding.com/sketch -->
    <title>search</title>
    <desc>Created with Sketch.</desc>
    <defs></defs>
    <g id="Page-2-Copy-3" stroke="none" stroke-width="1" fill="none" fill-rule="evenodd" sketch:type="MSPage">
        <g id="editor---default" sketch:type="MSArtboardGroup" transform="translate(-582.000000, -19.000000)" fill-opacity="0.200747281" fill="#000000">
            <g id="search" sketch:type="MSLayerGroup" transform="translate(297.500000, 13.000000)">
                <path d="M294.514691,14.6722222 L294.514691,14.6722222 C295.907691,12.4516667 295.594901,9.57077778 293.804007,7.65044444 C292.780533,6.57011111 291.473007,6 290.051638,6 C288.63027,6 287.294007,6.60044444 286.270533,7.65044444 C284.166849,9.871 284.195586,13.4118333 286.242164,15.6024444 C287.265638,16.6823889 288.573164,17.2525 290.02327,17.2525 C291.075112,17.2525 292.069849,16.9526667 292.922743,16.3825556 L295.481059,19.083 C296.049901,19.6830556 296.931164,19.6830556 297.499638,19.083 L298.09648,18.453 L294.514691,14.6722222 L294.514691,14.6722222 Z M287.86248,13.8921111 C286.725533,12.6916111 286.668796,10.7413333 287.749007,9.451 C287.777375,9.39072222 287.834112,9.36077778 287.86248,9.33083333 C288.459691,8.73077778 289.198743,8.37066667 290.02327,8.37066667 C290.847428,8.37066667 291.615217,8.70083333 292.183691,9.33083333 C293.377743,10.5912222 293.377743,12.6317222 292.183691,13.8921111 C291.615217,14.4921667 290.847428,14.8522778 290.02327,14.8522778 C289.198743,14.8522778 288.459691,14.4921667 287.86248,13.8921111 L287.86248,13.8921111 Z" sketch:type="MSShapeGroup" transform="translate(291.700000, 13.000000) scale(-1, 1) translate(-291.700000, -13.000000) "></path>
            </g>
        </g>
    </g>
</svg>