<svg width="16" height="16" viewBox="0 0 16 16" xmlns="http://www.w3.org/2000/svg"><title>ask-for-help-face</title><desc>Created with Sketch.</desc><g fill="none"><path d="M6 11.579s.476.471 1.579.471 1.579-.471 1.579-.471" stroke="#222" stroke-linecap="round" stroke-linejoin="round"/><circle fill="#222" cx="6.263" cy="9.211" r="1"/><circle fill="#222" cx="9.421" cy="9.211" r="1"/><circle stroke="#222" stroke-width="1.5" cx="7.579" cy="8.421" r="6.316"/><path d="M.473 9.314c-.164-.643-.263-2.181-.263-2.568 0-3.213 2.8-6.231 6.422-6.687.603.915.946 1.973.946 3.099 0 3.207-3.396 5.764-7.106 6.156zM5.168.346c.755-.224 1.566-.346 2.41-.346 4.069 0 7.368 2.828 7.368 6.316 0 .525-.114 2.271-.255 2.759l-.031.104c-5.21-.864-9.538-5.017-9.538-8.127 0-.239.015-.475.046-.707z" fill="#222"/><path d="M10.623 15.571h3.272c.331 0 1.6-.897 1.69-1.934.09-1.037.003.061 0 0-.131-2.718-.69-7.339-.69-7.339l-4.396 8.202s-7.55-.867-7.685-1.183c-.135-.316 0 2.255 0 2.255h7.808z" fill="#222"/></g></svg>
