<svg width="21" height="16" viewBox="0 0 21 16" xmlns="http://www.w3.org/2000/svg"><title>ask-question</title><desc>Created with Sketch.</desc><g transform="translate(1)" fill="none"><path d="M10 11.579s.476.471 1.579.471 1.579-.471 1.579-.471" stroke="#222" stroke-linecap="round" stroke-linejoin="round"/><circle fill="#222" cx="10.263" cy="9.211" r="1"/><circle fill="#222" cx="13.421" cy="9.211" r="1"/><circle stroke="#222" stroke-width="1.5" cx="11.579" cy="8.421" r="6.316"/><path d="M4.473 9.314c-.164-.643-.263-2.181-.263-2.568 0-3.213 2.8-6.231 6.422-6.687.603.915.946 1.973.946 3.099 0 3.207-3.396 5.764-7.106 6.156zM9.168.346c.755-.224 1.566-.346 2.41-.346 4.069 0 7.368 2.828 7.368 6.316 0 .525-.114 2.271-.255 2.759l-.031.104c-5.21-.864-9.538-5.017-9.538-8.127 0-.239.015-.475.046-.707z" fill="#222"/><path d="M14.623 15.571s4.473.415 4.833 0c.36-.415-.56-9.273-.56-9.273l-4.273 9.273z" fill="#222"/><path d="M1.318 7.028h3.45s.141-2.364.141-2.797c0-.433-.42-1.228-1.284-1.557-.864-.329-2.466.374-2.825.865s-.43 1.57-.266 2.215c.187.645.785 1.275.785 1.275z" stroke="#222" stroke-width="1.5" stroke-linecap="round" stroke-linejoin="round"/><path d="M.997 7.473s.041 4.015.825 5.489c.783 1.475 2.067 1.955 2.067 1.955h13.09s1.32.175 1.754-1.132" stroke="#222" stroke-width="1.5" stroke-linecap="round" stroke-linejoin="round"/></g></svg>